<?xml version="1.0" standalone="no"?>
<!DOCTYPE svg PUBLIC "-//W3C//DTD SVG 20010904//EN"
 "http://www.w3.org/TR/2001/REC-SVG-20010904/DTD/svg10.dtd">
<svg version="1.0" xmlns="http://www.w3.org/2000/svg"
 width="512.000000pt" height="512.000000pt" viewBox="0 0 512.000000 512.000000"
 preserveAspectRatio="xMidYMid meet">
<metadata>
Created by potrace 1.11, written by Peter Selinger 2001-2013
</metadata>
<g transform="translate(0.000000,512.000000) scale(0.100000,-0.100000)"
fill="#000000" stroke="none">
<path d="M10 2565 l0 -2555 2555 0 2555 0 0 2555 0 2555 -2555 0 -2555 0 0
-2555z m3886 305 c35 -17 86 -53 112 -80 48 -49 49 -49 88 -38 152 42 353 -60
430 -219 36 -73 45 -205 20 -279 -16 -46 -15 -47 7 -63 40 -27 85 -82 119
-145 31 -58 33 -66 33 -166 0 -99 -2 -109 -33 -172 -39 -79 -115 -154 -194
-189 l-54 -23 -11 -67 c-35 -221 -249 -375 -462 -333 l-31 6 0 115 c0 115 0
115 -22 109 -13 -3 -53 -6 -90 -6 l-68 0 0 -52 0 -52 -27 32 -28 32 -45 -30
c-103 -69 -254 -80 -366 -25 -70 34 -160 122 -192 187 -50 103 -52 232 -4 329
l20 39 -49 36 c-59 43 -125 141 -140 209 -31 137 8 273 105 371 73 72 152 108
247 112 l77 4 4 53 c9 107 92 231 194 291 110 64 247 70 360 14z m-1106 -258
c0 -5 -38 -34 -85 -65 l-84 -56 -86 50 c-94 55 -119 90 -27 38 31 -18 66 -38
77 -46 29 -20 38 -17 121 37 82 53 84 55 84 42z m-590 -249 c-1 -10 -156 -113
-170 -113 -8 0 -158 85 -169 96 -2 2 -2 7 1 10 4 3 43 -16 88 -41 l81 -47 77
51 c76 50 92 58 92 44z m200 -241 c0 -5 -38 -35 -85 -66 -96 -63 -78 -64 -197
6 -37 22 -65 44 -62 49 3 5 22 -2 42 -14 20 -13 58 -35 83 -50 l46 -26 79 54
c81 55 94 62 94 47z"/>
</g>
</svg>
